<?xml version="1.0" encoding="UTF-8"?>
<svg xmlns="http://www.w3.org/2000/svg" version="1.1" viewBox="0 0 2122 2122">
  <defs>
    <style>
      .cls-1 {
        fill: #213755;
      }

      .cls-1, .cls-2, .cls-3, .cls-4, .cls-5, .cls-6 {
        stroke-width: 0px;
      }

      .cls-2 {
        fill: #253855;
      }

      .cls-3 {
        fill: #081731;
      }

      .cls-7 {
        stroke: #fff;
        stroke-width: 10px;
      }

      .cls-7, .cls-8, .cls-9 {
        fill: none;
        stroke-miterlimit: 10;
      }

      .cls-10 {
        mix-blend-mode: multiply;
      }

      .cls-4 {
        fill: #3ac3e0;
      }

      .cls-5 {
        fill: #15243e;
      }

      .cls-11 {
        isolation: isolate;
      }

      .cls-8 {
        stroke: #00a1c1;
        stroke-width: 2.5px;
      }

      .cls-9 {
        stroke: #364d6f;
        stroke-width: 5px;
      }

      .cls-6 {
        fill: #fff;
        mix-blend-mode: soft-light;
      }
    </style>
  </defs>
  <g class="cls-11">
    <g id="Capa_1" data-name="Capa 1">
      <g>
        <g>
          <path class="cls-1" d="M1676.9,1368.9c0,11.1-9,20.2-20.2,20.2H303.9c-11.1,0-20.2-9-20.2-20.2V487.2c0-11.1,9-20.2,20.2-20.2h1352.8c11.1,0,20.2,9,20.2,20.2v881.7Z"/>
          <rect class="cls-4" x="283.8" y="545.7" width="1393.2" height="764.6"/>
          <rect class="cls-5" x="849.2" y="1389.1" width="262.2" height="202.3"/>
          <path class="cls-2" d="M1197.7,1591.4h-434.8s-56.6,0-62.5,62.9h559.9c-6-62.9-62.5-62.9-62.5-62.9Z"/>
          <path class="cls-7" d="M1219.2,931.1c0-7.3-.4-14.4-1-21.5l47.9-12.5-21.5-82-48.8,12.8c-10.3-21.4-23.7-41.1-39.6-58.4l31.3-40.6-67.1-51.8-31.7,41.1c-20.5-10.5-42.7-18.1-66.1-22.2v-52.2h-84.7v52.2c-22.2,4-43.4,11-63,20.7l-31.1-41.5-67.8,50.8,30.8,41.1c-11.7,12.4-22.1,25.9-31,40.6l-47.6-17.5-29.3,79.5,46.7,17.2c-2.7,14.4-4.2,29.2-4.2,44.3s.2,10.4.6,15.6l-47.4,12.4,21.5,82,46.3-12.1c10.1,22.4,23.4,42.9,39.5,61l-28.8,37.3,67.1,51.8,28.4-36.8c21.4,11.4,44.8,19.5,69.4,23.9v46.2h84.7v-46.2c23.5-4.2,45.7-11.8,66.3-22.3l27.8,37.2,67.8-50.8-28.2-37.7c12-13.1,22.5-27.4,31.3-42.9l44.7,16.5,29.3-79.5-45.7-16.8c2.1-12.6,3.2-25.5,3.2-38.6ZM980.3,1090.7c-89.9,0-162.7-72.8-162.7-162.7s72.8-162.7,162.7-162.7,162.7,72.8,162.7,162.7-72.8,162.7-162.7,162.7Z"/>
          <path class="cls-6" d="M303.9,467c-11.1,0-20.2,9-20.2,20.2v881.7c0,11.1,9,20.2,20.2,20.2h1352.8c11.1,0,20.2-9,20.2-20.2L468.6,467h-164.7Z"/>
        </g>
        <g>
          <path class="cls-2" d="M1837.6,1629.6c0,12.9-10.5,23.4-23.4,23.4h-496.9c-12.9,0-23.4-10.5-23.4-23.4v-911.7c0-12.9,10.5-23.4,23.4-23.4h496.9c12.9,0,23.4,10.5,23.4,23.4v911.7Z"/>
          <rect class="cls-4" x="1293.8" y="763.5" width="543.7" height="824.5"/>
          <g>
            <path class="cls-3" d="M1630.9,732.4c0,3.6-2.9,6.4-6.4,6.4h-138.5c-3.6,0-6.5-2.9-6.5-6.4h0c0-3.6,2.9-6.4,6.5-6.4h138.5c3.6,0,6.4,2.9,6.4,6.4h0Z"/>
            <path class="cls-3" d="M1651.8,732.4c0,4.2-3.4,7.7-7.6,7.7s-7.7-3.4-7.7-7.7,3.4-7.6,7.7-7.6,7.6,3.4,7.6,7.6Z"/>
          </g>
          <g class="cls-10">
            <rect class="cls-8" x="1317.7" y="904.5" width="496" height="496"/>
            <line class="cls-8" x1="1317.7" y1="1355.4" x2="1813.7" y2="1355.4"/>
            <line class="cls-8" x1="1317.7" y1="1310.3" x2="1813.7" y2="1310.3"/>
            <line class="cls-8" x1="1317.7" y1="1265.2" x2="1813.7" y2="1265.2"/>
            <line class="cls-8" x1="1317.7" y1="1220.2" x2="1813.7" y2="1220.2"/>
            <line class="cls-8" x1="1317.7" y1="1175" x2="1813.7" y2="1175"/>
            <line class="cls-8" x1="1317.7" y1="1129.9" x2="1813.7" y2="1129.9"/>
            <line class="cls-8" x1="1317.7" y1="1084.8" x2="1813.7" y2="1084.8"/>
            <line class="cls-8" x1="1317.7" y1="1039.7" x2="1813.7" y2="1039.7"/>
            <line class="cls-8" x1="1317.7" y1="994.7" x2="1813.7" y2="994.7"/>
            <line class="cls-8" x1="1317.7" y1="949.5" x2="1813.7" y2="949.5"/>
            <line class="cls-8" x1="1768.7" y1="904.5" x2="1768.7" y2="1400.5"/>
            <line class="cls-8" x1="1723.5" y1="904.5" x2="1723.5" y2="1400.5"/>
            <line class="cls-8" x1="1678.4" y1="904.5" x2="1678.4" y2="1400.5"/>
            <line class="cls-8" x1="1633.4" y1="904.5" x2="1633.4" y2="1400.5"/>
            <line class="cls-8" x1="1588.2" y1="904.5" x2="1588.2" y2="1400.5"/>
            <line class="cls-8" x1="1543.2" y1="904.5" x2="1543.2" y2="1400.5"/>
            <line class="cls-8" x1="1498" y1="904.5" x2="1498" y2="1400.5"/>
            <line class="cls-8" x1="1453" y1="904.5" x2="1453" y2="1400.5"/>
            <line class="cls-8" x1="1407.9" y1="904.5" x2="1407.9" y2="1400.5"/>
            <line class="cls-8" x1="1362.7" y1="904.5" x2="1362.7" y2="1400.5"/>
          </g>
          <g>
            <path class="cls-9" d="M1717.3,1154.4c0-4.6-.2-9.1-.6-13.6l30.4-8-13.6-52-31,8.1c-6.5-13.6-15-26.1-25.1-37l19.9-25.7-42.6-32.9-20.1,26.1c-13-6.7-27.1-11.5-41.9-14.1v-33.1h-53.8v33.1c-14.1,2.5-27.5,7-40,13.1l-19.7-26.4-43,32.2,19.5,26.1c-7.4,7.8-14,16.5-19.7,25.8l-30.2-11.1-18.6,50.5,29.6,10.9c-1.7,9.1-2.7,18.5-2.7,28.1s.2,6.6.4,9.9l-30.1,7.9,13.6,52,29.4-7.7c6.4,14.2,14.9,27.2,25.1,38.7l-18.3,23.7,42.6,32.9,18-23.3c13.6,7.2,28.4,12.4,44.1,15.2v29.3h53.8v-29.3c14.9-2.7,29-7.5,42.1-14.2l17.7,23.6,43-32.2-17.9-23.9c7.6-8.3,14.2-17.4,19.9-27.2l28.4,10.4,18.6-50.5-29-10.7c1.3-8,2-16.2,2-24.5ZM1565.7,1227.4c-41.3,0-74.9-33.5-74.9-74.9s33.5-74.9,74.9-74.9,74.9,33.5,74.9,74.9-33.5,74.9-74.9,74.9Z"/>
            <path class="cls-9" d="M1565.7,1258.4c-58.5,0-105.9-47.4-105.9-105.9s47.4-105.9,105.9-105.9"/>
          </g>
          <path class="cls-6" d="M1317.3,694.5c-12.9,0-23.4,10.5-23.4,23.4v911.7c0,12.9,10.5,23.4,23.4,23.4h496.9c12.9,0,23.4-10.5,23.4-23.4l-411.6-935.1h-108.7Z"/>
        </g>
      </g>
    </g>
  </g>
</svg>